<?xml version="1.0" encoding="UTF-8"?>
<svg version="1.1" xmlns="http://www.w3.org/2000/svg" width="225" height="225">
<path d="M0 0 C74.25 0 148.5 0 225 0 C225 74.25 225 148.5 225 225 C150.75 225 76.5 225 0 225 C0 150.75 0 76.5 0 0 Z " fill="#0A4E7D" transform="translate(0,0)"/>
<path d="M0 0 C1.83715576 -0.01879967 1.83715576 -0.01879967 3.71142578 -0.03797913 C5.0261084 -0.02472092 6.34079102 -0.01146271 7.6953125 0.00219727 C9.0662454 0.00136794 10.4371782 -0.00109385 11.80810547 -0.00511169 C14.67641252 -0.00796521 17.54393676 0.0066856 20.41210938 0.03417969 C24.08095956 0.06826357 27.74841069 0.06224107 31.41732788 0.04351711 C34.24678115 0.03292697 37.07591122 0.04190283 39.90533447 0.05690193 C41.91327618 0.06457485 43.92125714 0.05724267 45.92919922 0.04966736 C47.15396973 0.06550369 48.37874023 0.08134003 49.640625 0.09765625 C50.71586426 0.10385483 51.79110352 0.11005341 52.89892578 0.11643982 C56.65136197 0.77751035 58.27475658 1.79865955 60.8203125 4.63110352 C61.43504333 7.74940491 61.43504333 7.74940491 61.41967773 11.46337891 C61.42362045 12.14189407 61.42756317 12.82040924 61.43162537 13.51948547 C61.43832484 15.75666747 61.40920276 17.99179709 61.37890625 20.22875977 C61.37465499 21.78526921 61.37232745 23.341785 61.37184143 24.89830017 C61.3656792 28.15759081 61.34299443 31.41619332 61.30737305 34.67529297 C61.26206286 38.8541145 61.24734501 43.03231358 61.24363613 47.21135807 C61.23920885 50.42412969 61.223908 53.63677053 61.2047596 56.8494854 C61.19587775 58.39046592 61.18914757 59.93146039 61.18459892 61.47245979 C61.17556124 63.62461967 61.15317655 65.77621549 61.12670898 67.92822266 C61.11074928 69.7654464 61.11074928 69.7654464 61.09446716 71.63978577 C60.8203125 74.63110352 60.8203125 74.63110352 58.8203125 77.63110352 C58.1603125 77.63110352 57.5003125 77.63110352 56.8203125 77.63110352 C56.8048513 76.30019432 56.8048513 76.30019432 56.78907776 74.94239807 C56.69127825 66.59858781 56.58878935 58.25485137 56.48097324 49.91116428 C56.42570514 45.62114141 56.37227907 41.33111178 56.32299805 37.04101562 C56.27541164 32.90424916 56.22307118 28.76756815 56.16737175 24.63090324 C56.14692216 23.04920505 56.12821347 21.4674834 56.11123848 19.88574409 C56.0872518 17.67781174 56.05718994 15.47004231 56.02563477 13.26220703 C56.00231834 11.37357689 56.00231834 11.37357689 55.97853088 9.4467926 C56.13944446 6.7281281 56.13944446 6.7281281 54.8203125 5.63110352 C52.95395462 5.53199791 51.08383056 5.5031109 49.21484375 5.50170898 C48.01690186 5.49855682 46.81895996 5.49540466 45.5847168 5.49215698 C44.28058838 5.49418121 42.97645996 5.49620544 41.6328125 5.49829102 C40.29142235 5.49761791 38.95003231 5.49664784 37.60864258 5.49539185 C34.79409629 5.49391516 31.97958168 5.49606848 29.16503906 5.50073242 C25.54990619 5.50642971 21.93484755 5.50315055 18.31971741 5.49715996 C15.54886308 5.49355355 12.77802648 5.4946933 10.00717163 5.49728775 C8.02341667 5.49828319 6.03966103 5.49523611 4.0559082 5.49215698 C2.85796631 5.49530914 1.66002441 5.4984613 0.42578125 5.50170898 C-1.16520386 5.50290237 -1.16520386 5.50290237 -2.78833008 5.50411987 C-5.13283693 5.36138072 -5.13283693 5.36138072 -6.1796875 6.63110352 C-6.2739049 8.74791669 -6.29711511 10.8679111 -6.29321289 12.98681641 C-6.29343193 13.98189964 -6.29343193 13.98189964 -6.2936554 14.99708557 C-6.29295631 17.19934307 -6.28516415 19.40151696 -6.27734375 21.60375977 C-6.27547956 23.12690688 -6.27405566 24.65005459 -6.27305603 26.17320251 C-6.26923096 30.18948003 -6.25940078 34.20572159 -6.24835205 38.22198486 C-6.23813769 42.31733717 -6.23355836 46.41269527 -6.22851562 50.50805664 C-6.2177785 58.54908879 -6.20070222 66.59009169 -6.1796875 74.63110352 C-4.11083529 74.34900446 -2.04338139 74.0566392 0.0234375 73.76000977 C1.75062012 73.5174646 1.75062012 73.5174646 3.51269531 73.27001953 C7.93889676 72.41503214 12.54344179 70.90797423 15.8203125 67.63110352 C16.04776137 64.20972574 16.04776137 64.20972574 14.8203125 60.63110352 C12.82561214 59.41712459 10.79320105 58.62006528 8.6328125 57.74047852 C6.8203125 56.63110352 6.8203125 56.63110352 5.8203125 52.88110352 C5.8203125 51.80860352 5.8203125 50.73610352 5.8203125 49.63110352 C4.8303125 49.63110352 3.8403125 49.63110352 2.8203125 49.63110352 C3.14257812 49.13352539 3.46484375 48.63594727 3.796875 48.12329102 C5.43479075 44.13477862 5.17932291 39.91070072 5.2109375 35.65063477 C5.38488501 30.51918313 6.47607017 27.52310968 9.8203125 23.63110352 C12.1875 22.20532227 12.1875 22.20532227 14.6953125 21.31860352 C15.56671875 21.00793945 16.438125 20.69727539 17.3359375 20.37719727 C20.14741788 19.53286904 22.89952171 18.93855518 25.8203125 18.63110352 C25.8203125 15.99110352 25.8203125 13.35110352 25.8203125 10.63110352 C23.3453125 10.13610352 23.3453125 10.13610352 20.8203125 9.63110352 C21.1503125 8.64110352 21.4803125 7.65110352 21.8203125 6.63110352 C22.4803125 6.63110352 23.1403125 6.63110352 23.8203125 6.63110352 C23.8203125 7.29110352 23.8203125 7.95110352 23.8203125 8.63110352 C24.6865625 8.30110352 25.5528125 7.97110352 26.4453125 7.63110352 C29.88569041 6.61173228 32.26659842 6.16757559 35.8203125 6.63110352 C38.1953125 8.31860352 38.1953125 8.31860352 39.8203125 10.63110352 C40.0703125 13.38110352 40.0703125 13.38110352 39.8203125 15.63110352 C41.4703125 15.63110352 43.1203125 15.63110352 44.8203125 15.63110352 C45.3153125 17.11610352 45.3153125 17.11610352 45.8203125 18.63110352 C41.0703125 17.75610352 41.0703125 17.75610352 38.8203125 16.63110352 C38.3253125 18.11610352 38.3253125 18.11610352 37.8203125 19.63110352 C37.1603125 19.63110352 36.5003125 19.63110352 35.8203125 19.63110352 C36.5421875 20.33235352 37.2640625 21.03360352 38.0078125 21.75610352 C38.68457031 22.45219727 38.68457031 22.45219727 39.375 23.16235352 C40.75595369 24.56570105 42.1934656 25.91271308 43.6328125 27.25610352 C46.59851598 30.85798313 46.40489724 34.58649344 46.16796875 39.08813477 C45.29782506 45.45289369 40.42321173 49.50513119 35.8203125 53.63110352 C34.8303125 54.12610352 34.8303125 54.12610352 33.8203125 54.63110352 C33.16817958 56.65573607 33.16817958 56.65573607 32.8203125 58.63110352 C33.50738281 58.59629883 34.19445312 58.56149414 34.90234375 58.52563477 C35.80339844 58.49856445 36.70445313 58.47149414 37.6328125 58.44360352 C38.97279297 58.39139648 38.97279297 58.39139648 40.33984375 58.33813477 C43.23678765 58.68029349 44.04586278 59.38503925 45.8203125 61.63110352 C45.00949219 61.70586914 44.19867188 61.78063477 43.36328125 61.85766602 C32.8472747 63.10636528 25.71397409 66.96369085 17.0703125 72.81860352 C9.33883862 78.00468018 2.20237705 80.18864887 -7.1796875 78.63110352 C-10.12783947 76.42459058 -11.07849931 75.2340836 -11.6943512 71.56422424 C-11.70054977 70.36241013 -11.70674835 69.16059601 -11.71313477 67.92236328 C-11.72175034 67.25681427 -11.73036591 66.59126526 -11.73924255 65.9055481 C-11.76190022 63.71080358 -11.75516476 61.51733631 -11.74609375 59.32250977 C-11.75132985 57.79320395 -11.75760628 56.26390138 -11.76487732 54.73460388 C-11.77528133 51.53092239 -11.77072104 48.32768505 -11.75610352 45.12402344 C-11.73892305 41.02348282 -11.7623998 36.92434442 -11.79759312 32.8239603 C-11.81958214 29.66597757 -11.81812205 26.50832952 -11.8098278 23.35029411 C-11.80900894 21.83885092 -11.81586013 20.32738299 -11.83059883 18.81601143 C-11.84807311 16.6995511 -11.83348422 14.58559889 -11.81079102 12.46923828 C-11.80982925 11.26662857 -11.80886749 10.06401886 -11.80787659 8.82496643 C-10.49971957 2.17398462 -6.41953895 0.00574204 0 0 Z " fill="#F8FAFB" transform="translate(91.1796875,52.368896484375)"/>
<path d="M0 0 C1.60279192 0.00015914 3.20558896 0.00585476 4.80834961 0.01586914 C5.65038437 0.01728409 6.49241913 0.01869904 7.35997009 0.02015686 C10.06024671 0.02577276 12.76044163 0.03832791 15.46069336 0.05102539 C17.28686404 0.05603834 19.11303602 0.06060161 20.93920898 0.06469727 C25.42556878 0.07574735 29.9118672 0.0930226 34.39819336 0.11352539 C31.33701768 2.73739026 30.66646209 3.11352539 26.39819336 3.11352539 C26.39819336 2.45352539 26.39819336 1.79352539 26.39819336 1.11352539 C25.40819336 1.60852539 25.40819336 1.60852539 24.39819336 2.11352539 C24.39819336 2.77352539 24.39819336 3.43352539 24.39819336 4.11352539 C25.71819336 4.44352539 27.03819336 4.77352539 28.39819336 5.11352539 C28.89319336 9.07352539 28.89319336 9.07352539 29.39819336 13.11352539 C28.44944336 13.36102539 27.50069336 13.60852539 26.52319336 13.86352539 C23.36135516 14.78626593 20.24527425 15.80435533 17.14819336 16.92602539 C16.31803711 17.2212207 15.48788086 17.51641602 14.63256836 17.82055664 C11.65221525 19.54520153 10.7607064 20.94870079 9.39819336 24.11352539 C9.0355042 27.54861021 8.91483007 30.87242024 8.87084961 34.31860352 C8.73663108 38.52280168 8.38804255 41.05211066 5.39819336 44.11352539 C6.38819336 44.11352539 7.37819336 44.11352539 8.39819336 44.11352539 C8.64569336 45.72227539 8.64569336 45.72227539 8.89819336 47.36352539 C9.59100981 49.92951223 9.95460935 50.85161716 12.27709961 52.22290039 C12.99768555 52.51680664 13.71827148 52.81071289 14.46069336 53.11352539 C16.60131836 54.01977539 16.60131836 54.01977539 18.39819336 55.11352539 C19.71069336 58.61352539 19.71069336 58.61352539 19.39819336 62.11352539 C16.06782747 65.98104706 11.31375844 67.9713545 6.39819336 69.11352539 C3.04615376 69.33826984 -0.24889485 69.29903485 -3.60180664 69.11352539 C-5.00501995 66.30709877 -4.72905748 63.98285623 -4.73120117 60.84375 C-4.73435333 59.52575912 -4.73750549 58.20776825 -4.74075317 56.84983826 C-4.73896353 55.40518155 -4.73691261 53.96052514 -4.73461914 52.51586914 C-4.73529241 51.04138676 -4.73626264 49.56690449 -4.73751831 48.09242249 C-4.73899372 45.00138289 -4.73684545 41.91037218 -4.73217773 38.81933594 C-4.72647554 34.84887619 -4.72976353 30.87848397 -4.7357502 26.9080267 C-4.73935578 23.86352526 -4.73821733 20.81903995 -4.73562241 17.77453804 C-4.73495339 16.31004389 -4.73578069 14.84554829 -4.73810196 13.38105583 C-4.74062894 11.33867291 -4.73609752 9.29628487 -4.73120117 7.25390625 C-4.73040558 6.08967636 -4.72960999 4.92544647 -4.72879028 3.72593689 C-4.53217077 -0.31908081 -4.20601234 0.13256936 0 0 Z " fill="#0A4D7C" transform="translate(88.601806640625,57.886474609375)"/>
<path d="M0 0 C2.701875 -0.103125 5.40375 -0.20625 8.1875 -0.3125 C9.02949951 -0.35802002 9.87149902 -0.40354004 10.73901367 -0.45043945 C14.99418668 -0.5288362 16.53610394 -0.37172325 19.98828125 2.39453125 C23.64430762 7.12961783 23.51560454 11.15341286 23 17 C21.79722887 19.88665072 20.94428325 21.33807596 18.40625 23.1171875 C14.88887549 24.40765282 11.4400612 24.20910184 7.75 24.125 C5.1925 24.08375 2.635 24.0425 0 24 C0 16.08 0 8.16 0 0 Z " fill="#F5F7F9" transform="translate(71,137)"/>
<path d="M0 0 C3.1875 1.8125 3.1875 1.8125 5 4 C5 4.99 5 5.98 5 7 C0.17639811 7.19294408 -3.49646738 6.75747614 -8 5 C-5.11559497 8.33886113 -2.20170693 9.01332223 1.94140625 10.15625 C4 11 4 11 6 14 C6.375 16.9375 6.375 16.9375 6 20 C3.50839111 23.0729843 1.55399603 24.82483137 -2.42578125 25.2734375 C-10.22395274 25.54779807 -10.22395274 25.54779807 -14.1875 22.75 C-16 20 -16 20 -16 16 C-12.625 15.8125 -12.625 15.8125 -9 16 C-8.34 16.99 -7.68 17.98 -7 19 C-4.43717258 19.72965366 -4.43717258 19.72965366 -2 20 C-2 18.68 -2 17.36 -2 16 C-2.60328125 15.90203125 -3.2065625 15.8040625 -3.828125 15.703125 C-7.55656222 15.00554642 -10.40042234 14.40946767 -13.5625 12.25 C-15.49243724 9.22922867 -15.58688021 7.52128126 -15 4 C-11.89448373 -1.61950563 -5.6450138 -0.84341182 0 0 Z " fill="#F2F5F7" transform="translate(157,136)"/>
<path d="M0 0 C2.64 0 5.28 0 8 0 C8 5.94 8 11.88 8 18 C11.63 18 15.26 18 19 18 C19 19.98 19 21.96 19 24 C12.73 24 6.46 24 0 24 C0 16.08 0 8.16 0 0 Z " fill="#F6F9FA" transform="translate(98,137)"/>
<path d="M0 0 C7.26 0 14.52 0 22 0 C22 1.65 22 3.3 22 5 C19.69 5 17.38 5 15 5 C15 11.27 15 17.54 15 24 C12.69 24 10.38 24 8 24 C8 17.73 8 11.46 8 5 C5.36 5 2.72 5 0 5 C0 3.35 0 1.7 0 0 Z " fill="#F5F7F8" transform="translate(116,137)"/>
<path d="M0 0 C2.97 0.495 2.97 0.495 6 1 C7.12256131 3.24512262 7.13413762 4.51456649 7.125 7 C7.12757812 7.70125 7.13015625 8.4025 7.1328125 9.125 C7 11 7 11 6 13 C4.02 13 2.04 13 0 13 C0 8.71 0 4.42 0 0 Z " fill="#0E4E7D" transform="translate(79,142)"/>
<path d="M0 0 C1.32 0 2.64 0 4 0 C4.33 0.66 4.66 1.32 5 2 C5.33 1.34 5.66 0.68 6 0 C9.3 0 12.6 0 16 0 C16 1.98 16 3.96 16 6 C14.68 6 13.36 6 12 6 C12 4.68 12 3.36 12 2 C11.34 2 10.68 2 10 2 C9.67 3.32 9.34 4.64 9 6 C9 4.68 9 3.36 9 2 C8.34 2 7.68 2 7 2 C6.67 3.32 6.34 4.64 6 6 C4 6 2 6 0 6 C0 4.02 0 2.04 0 0 Z " fill="#BBCBD5" transform="translate(71,166)"/>
<path d="M0 0 C1.67004829 0.31595508 3.33637583 0.65179959 5 1 C6.32 1 7.64 1 9 1 C9.66 1 10.32 1 11 1 C11 2.32 11 3.64 11 5 C11.99 5.33 12.98 5.66 14 6 C9.38 6 4.76 6 0 6 C-0.33 4.35 -0.66 2.7 -1 1 C-0.67 0.67 -0.34 0.34 0 0 Z " fill="#87A3B9" transform="translate(149,166)"/>
<path d="M0 0 C0.99 0.33 1.98 0.66 3 1 C3 1.66 3 2.32 3 3 C3.66 2.01 4.32 1.02 5 0 C7.97 0.33 10.94 0.66 14 1 C14 2.65 14 4.3 14 6 C13.67 5.34 13.34 4.68 13 4 C12.34 4 11.68 4 11 4 C11 4.66 11 5.32 11 6 C7.37 6 3.74 6 0 6 C-0.33 4.35 -0.66 2.7 -1 1 C-0.67 0.67 -0.34 0.34 0 0 Z " fill="#8CA8BB" transform="translate(133,166)"/>
<path d="M0 0 C2 0 4 0 6 0 C6.33 1.98 6.66 3.96 7 6 C4.69 6 2.38 6 0 6 C-1 3 -1 3 0 0 Z " fill="#ACC0CC" transform="translate(96,166)"/>
<path d="M0 0 C2 0 4 0 6 0 C6 1.32 6 2.64 6 4 C6.66 4.33 7.32 4.66 8 5 C5.03 5 2.06 5 -1 5 C-0.67 3.35 -0.34 1.7 0 0 Z " fill="#BCCCD5" transform="translate(122,167)"/>
<path d="M0 0 C0.99 0.33 1.98 0.66 3 1 C3 1.66 3 2.32 3 3 C3.33 2.34 3.66 1.68 4 1 C6 2 6 2 7 4 C7.66 4.33 8.32 4.66 9 5 C5.92677456 5.91058531 3.19902639 6.08886184 0 6 C-0.38218767 4.34385343 -0.71395102 2.67542976 -1 1 C-0.67 0.67 -0.34 0.34 0 0 Z " fill="#C9D7DF" transform="translate(133,166)"/>
<path d="M0 0 C0.99 0 1.98 0 3 0 C2.67 1.98 2.34 3.96 2 6 C1.01 6 0.02 6 -1 6 C-1 5.34 -1 4.68 -1 4 C-1.66 4 -2.32 4 -3 4 C-3.33 4.66 -3.66 5.32 -4 6 C-4 4.35 -4 2.7 -4 1 C-3.67 1.66 -3.34 2.32 -3 3 C-2.34 3 -1.68 3 -1 3 C-0.67 2.01 -0.34 1.02 0 0 Z " fill="#AFC5D3" transform="translate(92,166)"/>
<path d="M0 0 C1.98 0.495 1.98 0.495 4 1 C3.67 2.65 3.34 4.3 3 6 C1.68 5.67 0.36 5.34 -1 5 C-0.67 3.35 -0.34 1.7 0 0 Z " fill="#94AEC2" transform="translate(111,166)"/>
<path d="M0 0 C1.66611905 -0.042721 3.33382885 -0.04063832 5 0 C5.33 0.33 5.66 0.66 6 1 C8.32817964 1.36760731 10.6618385 1.70241581 13 2 C13 2.33 13 2.66 13 3 C11.39773045 3.22245393 9.79303233 3.42746669 8.1875 3.625 C7.29417969 3.74101562 6.40085938 3.85703125 5.48046875 3.9765625 C3 4 3 4 0 2 C0 1.34 0 0.68 0 0 Z " fill="#31648C" transform="translate(149,141)"/>
<path d="M0 0 C1.98 0 3.96 0 6 0 C6 1.98 6 3.96 6 6 C5.67 4.68 5.34 3.36 5 2 C4.34 2 3.68 2 3 2 C3 3.32 3 4.64 3 6 C2.34 6 1.68 6 1 6 C0.67 4.02 0.34 2.04 0 0 Z " fill="#ABBFCC" transform="translate(103,166)"/>
<path d="M0 0 C0.99 0 1.98 0 3 0 C3 1.32 3 2.64 3 4 C3.99 4.33 4.98 4.66 6 5 C3.03 5 0.06 5 -3 5 C-2.67 4.34 -2.34 3.68 -2 3 C-1.34 3.33 -0.68 3.66 0 4 C0 2.68 0 1.36 0 0 Z " fill="#C7D6DE" transform="translate(157,167)"/>
<path d="M0 0 C1.32 0.33 2.64 0.66 4 1 C3.67 2.65 3.34 4.3 3 6 C2.01 6 1.02 6 0 6 C0 4.02 0 2.04 0 0 Z " fill="#8FA8BA" transform="translate(71,166)"/>
</svg>
